<svg width="200" height="200" viewBox="0 0 200 200" fill="none" xmlns="http://www.w3.org/2000/svg">
<path d="M48.625 87.3L50.65 90.525L33 101.35L50.65 112.275L48.4 115.35L29.4 103.475V99.175L48.625 87.3ZM143.847 82.65L170.572 99.175V103.475L151.597 115.35L149.322 112.25L166.972 101.35L141.822 85.825L143.847 82.65ZM125.947 122.15L122.547 120.65L143.947 76.525L147.297 78.175L125.947 122.15Z" fill="#606468"/>
<path d="M64.2055 94.1C65.1721 92.8333 66.2805 91.8583 67.5305 91.175C68.7971 90.475 70.1888 90.125 71.7055 90.125C74.0555 90.125 75.9555 90.6917 77.4055 91.825C78.8555 92.9583 79.9138 94.5583 80.5805 96.625C81.2471 98.675 81.5805 101.075 81.5805 103.825C81.5805 106.475 81.1805 108.842 80.3805 110.925C79.5805 112.992 78.4055 114.617 76.8555 115.8C75.3221 116.983 73.4221 117.575 71.1555 117.575C68.1055 117.575 65.7138 116.475 63.9805 114.275L63.6805 117H60.0055V80.075L64.2055 79.55V94.1ZM70.1555 114.175C72.3555 114.175 74.0471 113.325 75.2305 111.625C76.4138 109.925 77.0055 107.317 77.0055 103.8C77.0055 101.5 76.7721 99.5917 76.3055 98.075C75.8388 96.5417 75.1388 95.4 74.2055 94.65C73.2888 93.8833 72.1555 93.5 70.8055 93.5C69.3388 93.5 68.0471 93.9417 66.9305 94.825C65.8305 95.6917 64.9221 96.6583 64.2055 97.725V110.775C64.8888 111.808 65.7471 112.633 66.7805 113.25C67.8305 113.867 68.9555 114.175 70.1555 114.175ZM90.2359 117V113.775H94.3359V93.9H90.2359V90.675H97.5359L98.3109 96.9C99.3276 94.7333 100.561 93.0583 102.011 91.875C103.461 90.6917 105.378 90.1 107.761 90.1C108.494 90.1 109.144 90.1583 109.711 90.275C110.294 90.375 110.886 90.5083 111.486 90.675L110.261 94.425C109.711 94.275 109.211 94.1667 108.761 94.1C108.311 94.0167 107.794 93.975 107.211 93.975C105.194 93.975 103.461 94.6917 102.011 96.125C100.561 97.5583 99.4026 99.725 98.5359 102.625V113.775H103.886V117H90.2359ZM107.436 99.575V93.85L107.861 90.675H111.486L110.886 99.575H107.436Z" fill="#853F3B"/>
</svg>
